<svg width="24" height="24" viewBox="0 0 24 24" fill="none" xmlns="http://www.w3.org/2000/svg">
<path d="M15.53 5.16L16.83 3.86C17.03 3.66 17.03 3.35 16.83 3.15C16.63 2.95 16.32 2.95 16.12 3.15L14.64 4.63C13.85 4.23 12.95 4 12 4C11.04 4 10.14 4.23 9.34 4.63L7.85 3.15C7.65 2.95 7.34 2.95 7.14 3.15C6.94 3.35 6.94 3.66 7.14 3.86L8.45 5.17C6.97 6.26 6 8.01 6 10H18C18 8.01 17.03 6.25 15.53 5.16ZM10 8H9V7H10V8ZM15 8H14V7H15V8Z" fill="#5C5C5C"/>
<path d="M15.9274 16.3668C15.9472 16.2064 15.9604 16.0396 15.9604 15.8663C15.9604 15.693 15.9472 15.5262 15.9208 15.3658L17.0363 14.5187C17.1353 14.4417 17.1617 14.3005 17.1023 14.1914L16.0462 12.4138C15.9802 12.2983 15.8416 12.2598 15.7227 12.2983L14.4092 12.8117C14.132 12.6064 13.8416 12.4395 13.5182 12.3112L13.3202 10.9507C13.3003 10.8224 13.1881 10.7325 13.0561 10.7325H10.9439C10.8119 10.7325 10.7063 10.8224 10.6865 10.9507L10.4885 12.3112C10.165 12.4395 9.868 12.6128 9.59733 12.8117L8.28381 12.2983C8.16502 12.2534 8.02641 12.2983 7.96038 12.4138L6.90426 14.1914C6.83827 14.3069 6.86468 14.4417 6.97028 14.5187L8.0858 15.3658C8.05942 15.5262 8.0396 15.6995 8.0396 15.8663C8.0396 16.0331 8.05279 16.2064 8.07917 16.3668L6.96373 17.2139C6.86468 17.2909 6.83828 17.4321 6.8977 17.5411L7.95383 19.3187C8.01977 19.4342 8.15839 19.4728 8.27725 19.4342L9.59077 18.9208C9.868 19.1262 10.1584 19.293 10.4818 19.4213L10.6798 20.7818C10.7063 20.9101 10.8119 21 10.9439 21H13.0561C13.1881 21 13.3003 20.9101 13.3135 20.7818L13.5115 19.4213C13.8349 19.293 14.132 19.1198 14.4027 18.9208L15.7162 19.4342C15.835 19.4792 15.9736 19.4342 16.0396 19.3187L17.0957 17.5411C17.1617 17.4257 17.1353 17.2909 17.0297 17.2139L15.9274 16.3668ZM12 17.7914C10.9109 17.7914 10.0198 16.9251 10.0198 15.8663C10.0198 14.8075 10.9109 13.9411 12 13.9411C13.0891 13.9411 13.9802 14.8075 13.9802 15.8663C13.9802 16.9251 13.0891 17.7914 12 17.7914Z" fill="#5C5C5C"/>
</svg>
