<svg width="24" height="24" viewBox="0 0 24 24" fill="none" xmlns="http://www.w3.org/2000/svg">
<g id="dataset">
<path id="path2" d="M6 2C4.9 2 4.00977 2.9 4.00977 4L4 20C4 21.1 4.89023 22 5.99023 22H18C19.1 22 20 21.1 20 20V8L14 2H6ZM16.2988 7.02539C16.4851 7.02539 16.6701 7.09781 16.8125 7.24023L18.5234 8.94922C18.8083 9.23407 18.8083 9.69367 18.5234 9.97852L17.1855 11.3145L14.4473 8.57617L15.7832 7.24023C15.9256 7.09781 16.1126 7.02539 16.2988 7.02539ZM13.666 9.35742L16.4043 12.0957L8.32617 20.1738H5.58789V17.4355L13.666 9.35742Z" fill="#5C5C5C"/>
</g>
</svg>
